<?xml version="1.0" encoding="UTF-8" standalone="no"?><!DOCTYPE svg PUBLIC "-//W3C//DTD SVG 1.1//EN" "http://www.w3.org/Graphics/SVG/1.1/DTD/svg11.dtd"><svg width="100%" height="100%" viewBox="0 0 882 89" version="1.1" xmlns="http://www.w3.org/2000/svg" xmlns:xlink="http://www.w3.org/1999/xlink" xml:space="preserve" xmlns:serif="http://www.serif.com/" style="fill-rule:evenodd;clip-rule:evenodd;stroke-linejoin:round;stroke-miterlimit:1.41421;"><g id="logo-container"><path d="M0,41.747l0,-29.94l7.917,0c3.496,0 6.282,1.11 8.359,3.331c2.077,2.221 3.136,5.264 3.177,9.13l0,4.853c0,3.935 -1.039,7.023 -3.115,9.264c-2.077,2.241 -4.939,3.362 -8.586,3.362l-7.752,0Zm6.046,-24.902l0,19.885l1.809,0c2.015,0 3.434,-0.532 4.257,-1.594c0.822,-1.062 1.254,-2.896 1.295,-5.501l0,-5.202c0,-2.797 -0.39,-4.747 -1.172,-5.851c-0.781,-1.103 -2.111,-1.682 -3.989,-1.737l-2.2,0Z" style="fill:#fff;fill-rule:nonzero;"/><path d="M34.485,25.111l-1.933,-0.164c-1.59,0 -2.667,0.699 -3.229,2.097l0,14.703l-5.84,0l0,-22.249l5.491,0l0.164,2.405c0.919,-1.878 2.187,-2.817 3.804,-2.817c0.658,0 1.193,0.089 1.604,0.268l-0.061,5.757Z" style="fill:#fff;fill-rule:nonzero;"/><path d="M34.382,38.786c0,-0.932 0.312,-1.7 0.936,-2.303c0.623,-0.603 1.436,-0.905 2.436,-0.905c0.974,0 1.782,0.298 2.427,0.895c0.644,0.596 0.966,1.367 0.966,2.313c0,0.96 -0.325,1.731 -0.977,2.313c-0.651,0.583 -1.456,0.874 -2.416,0.874c-0.973,0 -1.778,-0.294 -2.416,-0.884c-0.637,-0.589 -0.956,-1.357 -0.956,-2.303Z" style="fill:#fff;fill-rule:nonzero;"/><path d="M73.02,16.845l-10.754,0l0,24.902l-6.046,0l0,-29.94l16.8,0l0,5.038Z" style="fill:#fff;fill-rule:nonzero;"/><path d="M71.355,35.455c0,-2.523 1.186,-4.243 3.557,-5.162c-0.987,-0.493 -1.772,-1.155 -2.354,-1.984c-0.583,-0.829 -0.874,-1.738 -0.874,-2.725c0,-2.015 0.774,-3.598 2.323,-4.75c1.55,-1.151 3.64,-1.727 6.272,-1.727c2.344,0 4.264,0.637 5.758,1.912c1.494,1.275 2.241,2.907 2.241,4.894l-5.819,0c0,-0.74 -0.23,-1.305 -0.689,-1.696c-0.459,-0.391 -1.059,-0.586 -1.799,-0.586c-0.768,0 -1.375,0.233 -1.82,0.699c-0.446,0.466 -0.668,1.049 -0.668,1.748c0,0.699 0.222,1.258 0.668,1.676c0.445,0.418 1.059,0.627 1.84,0.627l3.291,0l0,3.989l-3.27,0c-1.892,0 -2.838,0.878 -2.838,2.632c0,0.754 0.25,1.385 0.751,1.892c0.5,0.507 1.175,0.761 2.025,0.761c0.85,0 1.532,-0.23 2.046,-0.689c0.514,-0.459 0.771,-1.059 0.771,-1.799l5.799,0c0,2.125 -0.774,3.821 -2.323,5.089c-1.549,1.268 -3.537,1.902 -5.964,1.902c-2.646,0 -4.794,-0.617 -6.446,-1.85c-1.652,-1.234 -2.478,-2.852 -2.478,-4.853Z" style="fill:#fff;fill-rule:nonzero;"/><path d="M99.67,19.498c-1.425,3.582 -2.193,7.123 -2.303,10.622c0,4.832 0.727,7.247 2.18,7.247c1.522,0 2.283,-2.032 2.283,-6.096l0,-6.921l6.128,0l0,6.941c0,4.051 0.76,6.076 2.282,6.076c0.713,0 1.254,-0.618 1.625,-1.853c0.37,-1.235 0.555,-3.033 0.555,-5.394c-0.11,-3.499 -0.878,-7.04 -2.303,-10.622l5.511,0c1.727,3.057 2.591,6.594 2.591,10.61c0,4.099 -0.655,7.132 -1.964,9.1c-1.309,1.967 -3.246,2.95 -5.809,2.95c-2.523,0 -4.373,-1.371 -5.552,-4.112c-1.179,2.741 -3.03,4.112 -5.553,4.112c-2.577,0 -4.517,-0.987 -5.819,-2.961c-1.302,-1.974 -1.953,-5.004 -1.953,-9.089c0,-4.016 0.863,-7.553 2.591,-10.61l5.51,0Zm4.401,-10.57l5.429,0l-3.393,7.094l-3.558,-0.01l1.522,-7.084Z" style="fill:#fff;fill-rule:nonzero;"/><path d="M130.721,19.086c2.66,0 4.743,1.046 6.251,3.136c1.508,2.091 2.262,5.083 2.262,8.976c0,3.372 -0.647,6.042 -1.943,8.01c-1.295,1.967 -3.074,2.95 -5.336,2.95c-1.727,0 -3.133,-0.685 -4.216,-2.056l0,10.199l-5.819,0l0,-20.275c0,-3.386 0.809,-6.056 2.426,-8.009c1.618,-1.954 3.743,-2.931 6.375,-2.931Zm-2.982,16.86c0.576,0.947 1.46,1.421 2.653,1.421c1.988,0 3.002,-1.963 3.043,-5.89l0,-0.7c0,-2.252 -0.257,-3.958 -0.771,-5.118c-0.514,-1.16 -1.264,-1.74 -2.251,-1.74c-0.837,0 -1.491,0.58 -1.964,1.74c-0.473,1.16 -0.71,2.791 -0.71,4.891l0,5.396Z" style="fill:#fff;fill-rule:nonzero;"/><path d="M150.112,33.357l2.818,-13.859l6.066,0l-6.087,21.961l0,8.863l-5.799,0l0,-9.089l-6.046,-21.735l6.087,0l2.961,13.859Z" style="fill:#fff;fill-rule:nonzero;"/><path d="M168.085,19.498l-0.021,15.258c0,0.836 0.12,1.429 0.36,1.778c0.24,0.35 0.703,0.525 1.388,0.525c0.535,0 1.001,-0.055 1.398,-0.165l-0.041,4.545c-0.973,0.356 -2.056,0.534 -3.249,0.534c-3.742,0 -5.627,-2.166 -5.655,-6.498l0,-15.977l5.82,0Z" style="fill:#fff;fill-rule:nonzero;"/><path d="M174.192,29.903c0,-3.373 0.795,-6.019 2.385,-7.938c1.591,-1.919 3.791,-2.879 6.601,-2.879c2.838,0 5.052,0.96 6.642,2.879c1.59,1.919 2.386,4.579 2.386,7.979l0,1.419c0,3.386 -0.789,6.032 -2.365,7.937c-1.577,1.906 -3.784,2.858 -6.622,2.858c-2.851,0 -5.069,-0.956 -6.652,-2.868c-1.583,-1.913 -2.375,-4.569 -2.375,-7.969l0,-1.418Zm5.84,1.46c0,3.975 1.062,5.963 3.187,5.963c1.961,0 3.016,-1.659 3.167,-4.976l0.021,-2.447c0,-2.029 -0.281,-3.534 -0.843,-4.514c-0.563,-0.98 -1.358,-1.47 -2.386,-1.47c-0.987,0 -1.758,0.49 -2.313,1.47c-0.555,0.98 -0.833,2.485 -0.833,4.514l0,1.46Z" style="fill:#fff;fill-rule:nonzero;"/><path d="M203.783,19.086c2.412,0 4.321,0.778 5.727,2.334c1.405,1.556 2.107,3.684 2.107,6.385l-5.428,0c0,-2.591 -0.802,-3.886 -2.406,-3.886c-1.81,0 -2.79,1.789 -2.941,5.367l-0.02,1.645c0,1.741 0.274,3.06 0.822,3.958c0.548,0.898 1.522,1.608 2.92,2.129c1.796,0.603 2.999,1.117 3.609,1.542c0.61,0.425 1.076,0.939 1.398,1.542c0.322,0.603 0.504,1.378 0.545,2.324c0,1.11 -0.425,2.347 -1.275,3.711c-0.85,1.364 -1.844,2.465 -2.981,3.301l-3.003,-2.344c1.015,-1.221 1.508,-2.372 1.481,-3.455c0,-0.96 -0.514,-1.618 -1.542,-1.974c-2.715,-0.836 -4.679,-2.07 -5.892,-3.702c-1.213,-1.631 -1.847,-3.831 -1.902,-6.6l0,-1.008c0,-3.4 0.785,-6.128 2.355,-8.184c1.569,-2.057 3.711,-3.085 6.426,-3.085Z" style="fill:#fff;fill-rule:nonzero;"/><rect x="224.963" y="11.807" width="6.046" height="29.94" style="fill:#fff;fill-rule:nonzero;"/><path d="M236.273,38.786c0,-0.932 0.312,-1.7 0.935,-2.303c0.624,-0.603 1.436,-0.905 2.437,-0.905c0.973,0 1.782,0.298 2.427,0.895c0.644,0.596 0.966,1.367 0.966,2.313c0,0.96 -0.326,1.731 -0.977,2.313c-0.651,0.583 -1.456,0.874 -2.416,0.874c-0.973,0 -1.779,-0.294 -2.416,-0.884c-0.638,-0.589 -0.956,-1.357 -0.956,-2.303Z" style="fill:#fff;fill-rule:nonzero;"/><path d="M272.341,35.619l-8.246,0l-1.604,6.128l-6.395,0l9.356,-29.94l5.532,0l9.418,29.94l-6.457,0l-1.604,-6.128Zm-6.93,-5.038l5.593,0l-2.796,-10.672l-2.797,10.672Z" style="fill:#fff;fill-rule:nonzero;"/><path d="M289.182,33.522l2.817,-14.024l6.067,0l-6.108,22.249l-5.552,0l-6.128,-22.249l6.087,0l2.817,14.024Z" style="fill:#fff;fill-rule:nonzero;"/><path d="M316.902,19.498l0,15.319c0.027,1.618 0.383,2.427 1.069,2.427c0.096,0 0.171,-0.028 0.226,-0.083l0.473,4.524c-0.658,0.329 -1.439,0.494 -2.344,0.494c-2.125,0 -3.612,-1.042 -4.462,-3.126c-1.111,2.07 -2.646,3.105 -4.607,3.105c-2.248,0 -4.033,-0.973 -5.356,-2.92c-1.323,-1.946 -1.985,-4.77 -1.985,-8.472c0,-3.605 0.658,-6.453 1.974,-8.544c1.316,-2.09 3.112,-3.136 5.388,-3.136c1.741,0 3.153,0.878 4.236,2.632l0.35,-2.22l5.038,0Zm-11.146,11.711c0,2.101 0.25,3.652 0.751,4.655c0.5,1.002 1.258,1.503 2.272,1.503c1.001,0 1.775,-0.46 2.324,-1.38l0,-10.503c-0.549,-1.044 -1.316,-1.565 -2.303,-1.565c-1.001,0 -1.759,0.576 -2.273,1.73c-0.514,1.153 -0.771,3.006 -0.771,5.56Z" style="fill:#fff;fill-rule:nonzero;"/><path d="M339.562,24.35l-4.338,0c2.001,1.933 3.002,4.38 3.002,7.342c0,3.166 -0.782,5.703 -2.344,7.608c-1.563,1.906 -3.654,2.858 -6.272,2.858c-2.742,0 -4.922,-1.018 -6.539,-3.053c-1.618,-2.036 -2.427,-4.829 -2.427,-8.38l0,-0.308c0,-3.304 0.799,-5.95 2.396,-7.938c1.597,-1.988 3.773,-2.981 6.529,-2.981l0.02,0.02l0,-0.02l9.973,0l0,4.852Zm-13.098,6.509c0,4.339 1.048,6.508 3.146,6.508c1.7,0 2.625,-1.771 2.776,-5.314l0.02,-1.627c0,-2.101 -0.236,-3.638 -0.709,-4.613c-0.473,-0.975 -1.183,-1.463 -2.128,-1.463c-1.988,0 -3.023,1.882 -3.105,5.644l0,0.865Z" style="fill:#fff;fill-rule:nonzero;"/><path d="M359.365,24.289l-5.861,0l0,10.672c0,0.891 0.103,1.501 0.309,1.83c0.205,0.329 0.521,0.494 0.946,0.494c0.466,0 1.014,-0.11 1.645,-0.329l0.596,4.544c-0.96,0.439 -2.118,0.658 -3.475,0.658c-1.878,0 -3.325,-0.61 -4.339,-1.83c-1.014,-1.22 -1.522,-3.036 -1.522,-5.449l0,-10.59l-5.531,0l0,-4.791l17.232,0l0,4.791Z" style="fill:#fff;fill-rule:nonzero;"/><path d="M361.442,29.903c0,-3.373 0.795,-6.019 2.385,-7.938c1.59,-1.919 3.791,-2.879 6.601,-2.879c2.838,0 5.052,0.96 6.642,2.879c1.59,1.919 2.385,4.579 2.385,7.979l0,1.419c0,3.386 -0.788,6.032 -2.365,7.937c-1.576,1.906 -3.783,2.858 -6.621,2.858c-2.851,0 -5.069,-0.956 -6.652,-2.868c-1.584,-1.913 -2.375,-4.569 -2.375,-7.969l0,-1.418Zm5.84,1.46c0,3.975 1.062,5.963 3.187,5.963c1.96,0 3.016,-1.659 3.167,-4.976l0.02,-2.447c0,-2.029 -0.281,-3.534 -0.843,-4.514c-0.562,-0.98 -1.357,-1.47 -2.385,-1.47c-0.987,0 -1.758,0.49 -2.313,1.47c-0.556,0.98 -0.833,2.485 -0.833,4.514l0,1.46Zm2.426,-22.538l5.429,0l-3.393,7.095l-3.557,-0.011l1.521,-7.084Z" style="fill:#fff;fill-rule:nonzero;"/><path d="M403.514,24.063l-2.837,0l0,10.693c0,0.891 0.126,1.497 0.38,1.819c0.254,0.323 0.709,0.484 1.367,0.484c0.521,0 0.981,-0.055 1.378,-0.165l-0.02,4.545c-0.974,0.356 -2.057,0.534 -3.249,0.534c-3.715,0 -5.607,-2.118 -5.676,-6.354l0,-11.556l-3.804,0l0,17.684l-5.819,0l0,-17.684l-2.982,0l0,-4.565l21.262,0l0,4.565Z" style="fill:#fff;fill-rule:nonzero;"/><path d="M406.373,29.903c0,-3.373 0.795,-6.019 2.385,-7.938c1.59,-1.919 3.79,-2.879 6.601,-2.879c2.838,0 5.052,0.96 6.642,2.879c1.59,1.919 2.385,4.579 2.385,7.979l0,1.419c0,3.386 -0.788,6.032 -2.365,7.937c-1.576,1.906 -3.783,2.858 -6.621,2.858c-2.852,0 -5.069,-0.956 -6.652,-2.868c-1.584,-1.913 -2.375,-4.569 -2.375,-7.969l0,-1.418Zm5.84,1.46c0,3.975 1.062,5.963 3.187,5.963c1.96,0 3.016,-1.659 3.167,-4.976l0.02,-2.447c0,-2.029 -0.281,-3.534 -0.843,-4.514c-0.562,-0.98 -1.357,-1.47 -2.385,-1.47c-0.987,0 -1.758,0.49 -2.314,1.47c-0.555,0.98 -0.832,2.485 -0.832,4.514l0,1.46Z" style="fill:#fff;fill-rule:nonzero;"/><path d="M433.866,19.498l0,13.51c0,2.892 0.555,4.339 1.665,4.339c0.919,0 1.7,-0.706 2.345,-2.119c0.644,-1.412 0.966,-3.118 0.966,-5.12c-0.055,-3.29 -0.624,-6.827 -1.707,-10.61l5.491,0c1.343,3.043 2.015,6.58 2.015,10.61c0,3.811 -0.775,6.776 -2.324,8.894c-1.549,2.118 -3.749,3.177 -6.6,3.177c-2.495,0 -4.391,-0.768 -5.686,-2.303c-1.296,-1.536 -1.95,-3.736 -1.964,-6.601l0,-13.777l5.799,0Z" style="fill:#fff;fill-rule:nonzero;"/><path d="M451.674,9.936c2.358,0 3.941,1.185 4.75,3.557l7.341,21.53c0.411,1.453 0.932,2.2 1.563,2.241l0.617,0l0,4.73c-0.412,0.082 -1.104,0.123 -2.077,0.123c-1.467,0 -2.629,-0.397 -3.486,-1.192c-0.857,-0.796 -1.525,-1.927 -2.005,-3.393l-2.591,-8.534l-3.002,12.749l-6.272,0l6.416,-21.694l-1.254,-3.414c-0.37,-1.22 -1.042,-1.83 -2.016,-1.83l-0.493,0l-0.576,0.041l-0.082,-4.462c0.905,-0.302 1.96,-0.452 3.167,-0.452Z" style="fill:#fff;fill-rule:nonzero;"/><path d="M467.836,29.903c0,-3.373 0.796,-6.019 2.386,-7.938c1.59,-1.919 3.79,-2.879 6.601,-2.879c2.837,0 5.051,0.96 6.642,2.879c1.59,1.919 2.385,4.579 2.385,7.979l0,1.419c0,3.386 -0.788,6.032 -2.365,7.937c-1.576,1.906 -3.784,2.858 -6.621,2.858c-2.852,0 -5.069,-0.956 -6.652,-2.868c-1.584,-1.913 -2.376,-4.569 -2.376,-7.969l0,-1.418Zm5.84,1.46c0,3.975 1.063,5.963 3.188,5.963c1.96,0 3.016,-1.659 3.167,-4.976l0.02,-2.447c0,-2.029 -0.281,-3.534 -0.843,-4.514c-0.562,-0.98 -1.357,-1.47 -2.385,-1.47c-0.987,0 -1.759,0.49 -2.314,1.47c-0.555,0.98 -0.833,2.485 -0.833,4.514l0,1.46Z" style="fill:#fff;fill-rule:nonzero;"/><path d="M497.427,19.086c2.413,0 4.322,0.778 5.727,2.334c1.405,1.556 2.108,3.684 2.108,6.385l-5.429,0c0,-2.591 -0.802,-3.886 -2.406,-3.886c-1.809,0 -2.79,1.789 -2.94,5.367l-0.021,1.645c0,1.741 0.274,3.06 0.823,3.958c0.548,0.898 1.521,1.608 2.92,2.129c1.795,0.603 2.998,1.117 3.608,1.542c0.61,0.425 1.077,0.939 1.399,1.542c0.322,0.603 0.503,1.378 0.545,2.324c0,1.11 -0.425,2.347 -1.275,3.711c-0.85,1.364 -1.844,2.465 -2.982,3.301l-3.002,-2.344c1.014,-1.221 1.508,-2.372 1.48,-3.455c0,-0.96 -0.514,-1.618 -1.542,-1.974c-2.714,-0.836 -4.678,-2.07 -5.891,-3.702c-1.214,-1.631 -1.848,-3.831 -1.902,-6.6l0,-1.008c0,-3.4 0.784,-6.128 2.354,-8.184c1.57,-2.057 3.712,-3.085 6.426,-3.085Z" style="fill:#fff;fill-rule:nonzero;"/><path d="M147.367,56.728l2.081,0l6.245,18.943l-15.039,0l6.713,-18.943Zm-3.578,16.9l8.808,0l-4.229,-13.374l-4.579,13.374Z" style="fill:#fff;fill-rule:nonzero;"/><path d="M161.209,61.594l0,10.666c0.026,1.016 0.429,1.524 1.21,1.524c0.399,0 0.702,-0.052 0.911,-0.156l-0.013,1.953c-0.495,0.164 -1.037,0.246 -1.627,0.246c-0.893,0 -1.578,-0.317 -2.055,-0.95c-0.477,-0.633 -0.716,-1.561 -0.716,-2.784l0,-10.499l2.29,0Z" style="fill:#fff;fill-rule:nonzero;"/><path d="M167.141,59.161c0,-1.197 0.373,-2.136 1.119,-2.816c0.746,-0.681 1.765,-1.022 3.058,-1.022c0.971,0 1.942,0.24 2.914,0.721l0.013,2.089c-0.425,-0.225 -0.922,-0.409 -1.49,-0.552c-0.568,-0.144 -1.064,-0.215 -1.489,-0.215c-0.573,0 -1.017,0.156 -1.334,0.467c-0.316,0.311 -0.475,0.735 -0.475,1.272c0,0.977 0.774,1.788 2.322,2.433c1.549,0.644 2.696,1.548 3.442,2.71c0.745,1.162 1.136,2.598 1.17,4.306l0,0.495c0,2.046 -0.479,3.705 -1.437,4.976c-0.959,1.27 -2.244,1.906 -3.858,1.906c-1.63,0 -2.925,-0.636 -3.883,-1.906c-0.958,-1.271 -1.438,-3.021 -1.438,-5.25c0,-1.465 0.334,-2.764 1.002,-3.896c0.668,-1.132 1.518,-1.845 2.55,-2.14l-0.013,-0.065c-0.668,-0.338 -1.197,-0.811 -1.587,-1.418c-0.39,-0.607 -0.586,-1.306 -0.586,-2.095Zm0.95,9.888c0,1.526 0.267,2.729 0.8,3.61c0.534,0.88 1.269,1.32 2.205,1.32c0.92,0 1.646,-0.431 2.18,-1.294c0.533,-0.863 0.8,-2.166 0.8,-3.91c0,-1.205 -0.28,-2.278 -0.839,-3.219c-0.56,-0.942 -1.278,-1.516 -2.154,-1.724c-0.91,0 -1.637,0.442 -2.179,1.327c-0.542,0.884 -0.813,2.181 -0.813,3.89Z" style="fill:#fff;fill-rule:nonzero;"/><path d="M189.102,61.594l0,10.317c0.009,1.249 0.269,1.873 0.78,1.873c0.122,0 0.226,-0.022 0.313,-0.065l0.273,1.782c-0.373,0.295 -0.85,0.443 -1.431,0.443c-1.041,0 -1.713,-0.646 -2.017,-1.939c-0.789,1.293 -1.908,1.939 -3.356,1.939c-1.414,0 -2.539,-0.61 -3.376,-1.828c-0.837,-1.219 -1.256,-2.96 -1.256,-5.223c0,-2.316 0.419,-4.155 1.256,-5.517c0.837,-1.361 1.966,-2.042 3.389,-2.042c1.414,0 2.515,0.62 3.304,1.86l0.182,-1.6l1.939,0Zm-7.767,7.572c0,1.57 0.256,2.764 0.768,3.584c0.511,0.82 1.231,1.229 2.159,1.229c1.128,0 1.978,-0.711 2.55,-2.133l0,-6.362c-0.598,-1.448 -1.444,-2.173 -2.537,-2.173c-0.936,0 -1.661,0.482 -2.172,1.444c-0.512,0.963 -0.768,2.433 -0.768,4.411Zm3.292,-14.233l2.263,0l-1.509,4.384l-1.457,-0.006l0.703,-4.378Z" style="fill:#fff;fill-rule:nonzero;"/><path d="M196.114,69.673l-0.989,0l0,5.998l-2.302,0l0,-14.077l2.302,0l0,5.959l0.807,0l4.15,-5.959l2.758,0l-4.93,6.791l5.268,7.286l-2.888,0l-4.176,-5.998Z" style="fill:#fff;fill-rule:nonzero;"/><path d="M215.082,63.546l-3.916,0l0,8.614c0,1.152 0.33,1.728 0.989,1.728c0.338,0 0.659,-0.113 0.963,-0.338l0.533,1.7c-0.589,0.454 -1.301,0.681 -2.133,0.681c-1.718,0 -2.602,-1.21 -2.654,-3.63l0,-8.755l-3.708,0l0,-1.952l9.926,0l0,1.952Z" style="fill:#fff;fill-rule:nonzero;"/><path d="M221.678,61.594c-0.988,2.42 -1.513,4.684 -1.574,6.791c0,1.787 0.191,3.166 0.573,4.137c0.381,0.972 0.928,1.457 1.639,1.457c0.702,0 1.249,-0.355 1.639,-1.066c0.39,-0.712 0.594,-1.774 0.611,-3.188l0,-4.072l2.316,0l0,3.994c0.009,1.431 0.208,2.511 0.599,3.239c0.39,0.729 0.941,1.093 1.652,1.093c0.711,0 1.257,-0.483 1.639,-1.45c0.382,-0.967 0.573,-2.349 0.573,-4.144c-0.061,-2.107 -0.586,-4.371 -1.575,-6.791l2.407,0c0.972,2.073 1.457,4.337 1.457,6.791c0,2.437 -0.379,4.304 -1.138,5.601c-0.759,1.296 -1.837,1.945 -3.233,1.945c-1.743,0 -2.923,-1.011 -3.539,-3.031c-0.615,2.02 -1.795,3.031 -3.538,3.031c-1.397,0 -2.474,-0.649 -3.233,-1.945c-0.759,-1.297 -1.139,-3.164 -1.139,-5.601c0,-2.498 0.486,-4.761 1.457,-6.791l2.407,0Z" style="fill:#fff;fill-rule:nonzero;"/><path d="M241.96,61.334c1.631,0 2.902,0.663 3.812,1.99c0.911,1.327 1.366,3.274 1.366,5.842c0,2.055 -0.403,3.697 -1.21,4.924c-0.806,1.227 -1.921,1.841 -3.343,1.841c-1.344,0 -2.429,-0.464 -3.252,-1.392l0,6.544l-2.316,0l0,-12.971c0,-1.353 0.21,-2.543 0.631,-3.571c0.42,-1.028 1.008,-1.819 1.763,-2.375c0.754,-0.555 1.604,-0.832 2.549,-0.832Zm-2.627,10.889c0.563,1.162 1.409,1.743 2.536,1.743c0.937,0 1.668,-0.418 2.193,-1.255c0.524,-0.837 0.787,-2.11 0.787,-3.818c0,-1.805 -0.252,-3.186 -0.755,-4.144c-0.503,-0.958 -1.214,-1.438 -2.134,-1.438c-0.78,0 -1.413,0.473 -1.899,1.418c-0.486,0.946 -0.728,2.143 -0.728,3.591l0,3.903Z" style="fill:#fff;fill-rule:nonzero;"/><path d="M268.969,75.671l-2.394,0l0,-16.9l-7.416,0l0,16.9l-2.38,0l0,-18.943l12.19,0l0,18.943Z" style="fill:#fff;fill-rule:nonzero;"/><path d="M282.525,61.594l0,10.317c0.008,1.249 0.269,1.873 0.78,1.873c0.122,0 0.226,-0.022 0.313,-0.065l0.273,1.782c-0.373,0.295 -0.85,0.443 -1.431,0.443c-1.041,0 -1.713,-0.646 -2.017,-1.939c-0.789,1.293 -1.908,1.939 -3.356,1.939c-1.414,0 -2.539,-0.61 -3.376,-1.828c-0.837,-1.219 -1.256,-2.96 -1.256,-5.223c0,-2.316 0.419,-4.155 1.256,-5.517c0.837,-1.361 1.966,-2.042 3.389,-2.042c1.413,0 2.515,0.62 3.304,1.86l0.182,-1.6l1.939,0Zm-7.767,7.572c0,1.57 0.256,2.764 0.768,3.584c0.511,0.82 1.231,1.229 2.159,1.229c1.128,0 1.978,-0.711 2.55,-2.133l0,-6.362c-0.598,-1.448 -1.444,-2.173 -2.537,-2.173c-0.936,0 -1.661,0.482 -2.172,1.444c-0.512,0.963 -0.768,2.433 -0.768,4.411Z" style="fill:#fff;fill-rule:nonzero;"/><path d="M290.044,72.171l2.667,-10.577l2.342,0l-4.176,14.077l-1.717,0l-4.228,-14.077l2.341,0l2.771,10.577Z" style="fill:#fff;fill-rule:nonzero;"/><path d="M299.359,71.716c0,0.659 0.243,1.203 0.729,1.632c0.486,0.43 1.127,0.644 1.925,0.644c0.746,0 1.377,-0.238 1.893,-0.715c0.516,-0.477 0.774,-1.067 0.774,-1.77l2.29,0c0,1.353 -0.466,2.429 -1.398,3.227c-0.933,0.798 -2.119,1.197 -3.559,1.197c-1.483,0 -2.684,-0.38 -3.603,-1.139c-0.92,-0.758 -1.379,-1.784 -1.379,-3.076c0,-1.614 0.75,-2.706 2.25,-3.279c-0.641,-0.312 -1.142,-0.733 -1.502,-1.262c-0.36,-0.529 -0.54,-1.11 -0.54,-1.743c0,-1.292 0.425,-2.296 1.275,-3.012c0.85,-0.715 2.016,-1.073 3.499,-1.073c1.362,0 2.496,0.388 3.402,1.164c0.907,0.776 1.36,1.78 1.36,3.012l-2.29,0c0,-0.616 -0.234,-1.141 -0.702,-1.574c-0.469,-0.434 -1.058,-0.651 -1.77,-0.651c-0.763,0 -1.366,0.202 -1.808,0.605c-0.442,0.404 -0.663,0.917 -0.663,1.542c0,1.388 0.802,2.081 2.406,2.081l2.225,0l0,1.926l-2.42,0c-1.596,0.026 -2.394,0.781 -2.394,2.264Z" style="fill:#fff;fill-rule:nonzero;"/><path d="M320.969,63.585l-1.575,0l0,8.519c0,0.573 0.091,0.996 0.274,1.27c0.182,0.273 0.494,0.41 0.936,0.41c0.391,0 0.69,-0.052 0.898,-0.156l0,1.953c-0.494,0.164 -1.036,0.246 -1.626,0.246c-0.911,0 -1.6,-0.321 -2.069,-0.963c-0.468,-0.642 -0.707,-1.544 -0.715,-2.706l0,-8.573l-4.072,0l0,12.086l-2.29,0l0,-12.086l-1.795,0l0,-1.991l12.034,0l0,1.991Z" style="fill:#fff;fill-rule:nonzero;"/><path d="M326.862,61.594l0,10.666c0.026,1.016 0.429,1.524 1.21,1.524c0.399,0 0.702,-0.052 0.911,-0.156l-0.013,1.953c-0.495,0.164 -1.037,0.246 -1.627,0.246c-0.893,0 -1.578,-0.317 -2.055,-0.95c-0.477,-0.633 -0.716,-1.561 -0.716,-2.784l0,-10.499l2.29,0Z" style="fill:#fff;fill-rule:nonzero;"/><path d="M342.747,63.585l-3.018,0c1.405,1.301 2.107,3.122 2.107,5.464l0,0.234c0,1.214 -0.227,2.339 -0.683,3.376c-0.455,1.036 -1.084,1.841 -1.886,2.413c-0.802,0.573 -1.715,0.859 -2.739,0.859c-1.604,0 -2.89,-0.657 -3.857,-1.971c-0.967,-1.314 -1.451,-3.068 -1.451,-5.263l0,-0.195c0,-2.047 0.482,-3.71 1.444,-4.989c0.963,-1.279 2.255,-1.919 3.877,-1.919l6.206,0l0,1.991Zm-9.224,5.203c0,1.579 0.265,2.837 0.794,3.773c0.529,0.937 1.266,1.405 2.211,1.405c0.946,0 1.683,-0.464 2.212,-1.392c0.529,-0.928 0.793,-2.285 0.793,-4.072c0,-1.492 -0.264,-2.684 -0.793,-3.577c-0.529,-0.894 -1.275,-1.34 -2.238,-1.34c-0.945,0 -1.678,0.446 -2.198,1.34c-0.521,0.893 -0.781,2.181 -0.781,3.863Z" style="fill:#fff;fill-rule:nonzero;"/><path d="M354.404,63.546l-3.916,0l0,8.614c0,1.152 0.329,1.728 0.988,1.728c0.339,0 0.66,-0.113 0.963,-0.338l0.534,1.7c-0.59,0.454 -1.301,0.681 -2.134,0.681c-1.717,0 -2.602,-1.21 -2.654,-3.63l0,-8.755l-3.708,0l0,-1.952l9.927,0l0,1.952Z" style="fill:#fff;fill-rule:nonzero;"/><path d="M359.451,61.594l0.13,1.639c0.885,-1.266 2.017,-1.899 3.396,-1.899c1.388,0 2.398,0.427 3.031,1.281c0.633,0.855 0.959,2.149 0.976,3.884l0,14.571l-2.29,0l0,-14.389c0,-1.18 -0.184,-2.036 -0.553,-2.57c-0.368,-0.533 -0.999,-0.8 -1.893,-0.8c-1.162,0 -2.012,0.651 -2.549,1.952l0,10.408l-2.316,0l0,-14.077l2.068,0Z" style="fill:#fff;fill-rule:nonzero;"/><path d="M373.086,61.594l0,8.352c0.017,1.379 0.195,2.396 0.533,3.051c0.338,0.655 0.902,0.982 1.691,0.982c1.275,0 2.151,-0.581 2.628,-1.743l0,-10.642l2.316,0l0,14.077l-2.069,0l-0.104,-1.327c-0.641,1.058 -1.535,1.587 -2.68,1.587c-0.997,0 -1.769,-0.291 -2.315,-0.872l0,6.024l-2.29,0l0,-19.489l2.29,0Z" style="fill:#fff;fill-rule:nonzero;"/><path d="M386.902,61.594l0,10.666c0.026,1.016 0.429,1.524 1.21,1.524c0.399,0 0.702,-0.052 0.911,-0.156l-0.013,1.953c-0.495,0.164 -1.037,0.246 -1.627,0.246c-0.893,0 -1.578,-0.317 -2.055,-0.95c-0.477,-0.633 -0.716,-1.561 -0.716,-2.784l0,-10.499l2.29,0Zm-1.249,-6.388l2.264,0l-1.509,4.385l-1.458,-0.007l0.703,-4.378Z" style="fill:#fff;fill-rule:nonzero;"/><path d="M391.377,67.982c0,-2.047 0.497,-3.667 1.49,-4.859c0.993,-1.193 2.305,-1.789 3.935,-1.789c1.631,0 2.943,0.581 3.936,1.743c0.993,1.162 1.502,2.745 1.528,4.749l0,1.483c0,2.038 -0.494,3.651 -1.483,4.839c-0.988,1.189 -2.307,1.783 -3.955,1.783c-1.63,0 -2.938,-0.577 -3.922,-1.731c-0.984,-1.153 -1.494,-2.714 -1.529,-4.683l0,-1.535Zm2.303,1.327c0,1.448 0.284,2.587 0.852,3.415c0.568,0.828 1.334,1.242 2.296,1.242c2.03,0 3.075,-1.465 3.136,-4.397l0,-1.587c0,-1.44 -0.287,-2.578 -0.859,-3.415c-0.572,-0.837 -1.34,-1.256 -2.303,-1.256c-0.945,0 -1.702,0.419 -2.27,1.256c-0.568,0.837 -0.852,1.971 -0.852,3.402l0,1.34Z" style="fill:#fff;fill-rule:nonzero;"/><path d="M407.587,61.594l0,8.365c0,2.68 0.681,4.02 2.043,4.02c0.885,0 1.624,-0.553 2.218,-1.658c0.594,-1.106 0.891,-2.427 0.891,-3.962c-0.043,-1.986 -0.498,-4.241 -1.366,-6.765l2.394,0c0.841,2.03 1.262,4.285 1.262,6.765c0,2.298 -0.477,4.135 -1.431,5.51c-0.954,1.374 -2.242,2.062 -3.864,2.062c-1.457,0 -2.561,-0.486 -3.311,-1.457c-0.75,-0.972 -1.13,-2.403 -1.138,-4.294l0,-8.586l2.302,0Z" style="fill:#fff;fill-rule:nonzero;"/><path d="M433.308,70.714l-6.401,0l-1.47,4.957l-2.446,0l6.102,-18.943l2.042,0l6.115,18.943l-2.446,0l-1.496,-4.957Zm-5.777,-2.043l5.165,0l-2.589,-8.612l-2.576,8.612Z" style="fill:#fff;fill-rule:nonzero;"/><path d="M449.466,67.344c0,2.784 -0.44,4.912 -1.321,6.382c-0.88,1.47 -2.131,2.205 -3.753,2.205c-1.605,0 -2.851,-0.731 -3.74,-2.192c-0.889,-1.462 -1.338,-3.563 -1.347,-6.304l0,-2.497c0,-2.732 0.436,-4.827 1.308,-6.284c0.871,-1.457 2.127,-2.186 3.766,-2.186c1.622,0 2.866,0.703 3.734,2.108c0.867,1.405 1.318,3.426 1.353,6.062l0,2.706Zm-7.858,-2.094l5.542,0l0,-0.716c0,-1.969 -0.236,-3.476 -0.709,-4.521c-0.473,-1.045 -1.16,-1.567 -2.062,-1.567c-0.893,0 -1.579,0.522 -2.056,1.567c-0.477,1.045 -0.715,2.552 -0.715,4.521l0,0.716Zm5.542,1.977l-5.542,0l0,0.508c0,1.925 0.241,3.445 0.722,4.56c0.481,1.114 1.169,1.671 2.062,1.671c0.893,0 1.576,-0.542 2.049,-1.626c0.473,-1.084 0.709,-2.624 0.709,-4.618l0,-0.495Z" style="fill:#fff;fill-rule:nonzero;"/><path d="M454.865,61.594l0.13,1.639c0.885,-1.266 2.016,-1.899 3.395,-1.899c1.388,0 2.399,0.427 3.032,1.281c0.633,0.855 0.958,2.149 0.975,3.884l0,14.571l-2.289,0l0,-14.389c0,-1.18 -0.185,-2.036 -0.553,-2.57c-0.369,-0.533 -1,-0.8 -1.893,-0.8c-1.162,0 -2.012,0.651 -2.55,1.952l0,10.408l-2.316,0l0,-14.077l2.069,0Z" style="fill:#fff;fill-rule:nonzero;"/><path d="M470.008,72.171l2.667,-10.577l2.342,0l-4.176,14.077l-1.718,0l-4.228,-14.077l2.342,0l2.771,10.577Z" style="fill:#fff;fill-rule:nonzero;"/><path d="M481.092,61.594c-0.988,2.42 -1.513,4.684 -1.574,6.791c0,1.787 0.191,3.166 0.573,4.137c0.381,0.972 0.928,1.457 1.639,1.457c0.702,0 1.249,-0.355 1.639,-1.066c0.39,-0.712 0.594,-1.774 0.612,-3.188l0,-4.072l2.315,0l0,3.994c0.009,1.431 0.208,2.511 0.599,3.239c0.39,0.729 0.941,1.093 1.652,1.093c0.711,0 1.258,-0.483 1.639,-1.45c0.382,-0.967 0.573,-2.349 0.573,-4.144c-0.061,-2.107 -0.586,-4.371 -1.575,-6.791l2.407,0c0.972,2.073 1.457,4.337 1.457,6.791c0,2.437 -0.379,4.304 -1.138,5.601c-0.759,1.296 -1.837,1.945 -3.233,1.945c-1.743,0 -2.923,-1.011 -3.539,-3.031c-0.615,2.02 -1.795,3.031 -3.538,3.031c-1.397,0 -2.474,-0.649 -3.233,-1.945c-0.759,-1.297 -1.138,-3.164 -1.138,-5.601c0,-2.498 0.485,-4.761 1.457,-6.791l2.406,0Zm3.877,-6.349l2.264,0l-1.509,4.385l-1.457,-0.007l0.702,-4.378Z" style="fill:#fff;fill-rule:nonzero;"/><path d="M500.36,72.171l2.667,-10.577l2.342,0l-4.177,14.077l-1.717,0l-4.228,-14.077l2.342,0l2.771,10.577Z" style="fill:#fff;fill-rule:nonzero;"/><g><path d="M562.52,14.378l3.024,-7.712l5.198,0l-5.276,11.136l5.399,11.322l-5.26,0l-3.085,-7.851l-3.069,7.851l-5.26,0l5.399,-11.322l-5.291,-11.136l5.198,0l3.023,7.712Z" style="fill:#fff;fill-rule:nonzero;"/><path d="M572.839,24.404c0,-1.892 0.89,-3.183 2.669,-3.872c-0.741,-0.37 -1.329,-0.866 -1.766,-1.488c-0.437,-0.622 -0.656,-1.304 -0.656,-2.044c0,-1.512 0.581,-2.699 1.743,-3.563c1.162,-0.864 2.73,-1.296 4.705,-1.296c1.758,0 3.198,0.478 4.318,1.435c1.121,0.956 1.682,2.18 1.682,3.671l-4.365,0c0,-0.555 -0.173,-0.98 -0.517,-1.273c-0.345,-0.293 -0.795,-0.439 -1.35,-0.439c-0.576,0 -1.031,0.174 -1.365,0.524c-0.334,0.35 -0.501,0.787 -0.501,1.311c0,0.525 0.167,0.944 0.501,1.257c0.334,0.314 0.794,0.471 1.381,0.471l2.467,0l0,2.992l-2.452,0c-1.419,0 -2.129,0.658 -2.129,1.974c0,0.566 0.188,1.039 0.563,1.419c0.376,0.381 0.882,0.571 1.52,0.571c0.637,0 1.149,-0.172 1.534,-0.517c0.386,-0.344 0.579,-0.794 0.579,-1.349l4.35,0c0,1.594 -0.581,2.866 -1.743,3.817c-1.162,0.951 -2.653,1.427 -4.473,1.427c-1.985,0 -3.597,-0.463 -4.836,-1.388c-1.239,-0.926 -1.859,-2.139 -1.859,-3.64Z" style="fill:#fff;fill-rule:nonzero;"/><path d="M593.153,12.434l-0.015,11.445c0,0.628 0.09,1.072 0.27,1.334c0.18,0.263 0.527,0.394 1.041,0.394c0.401,0 0.751,-0.041 1.049,-0.124l-0.031,3.409c-0.73,0.268 -1.543,0.401 -2.437,0.401c-2.807,0 -4.221,-1.624 -4.242,-4.874l0,-11.985l4.365,0Z" style="fill:#fff;fill-rule:nonzero;"/><path d="M604.86,12.126c1.995,0 3.558,0.784 4.689,2.352c1.132,1.568 1.697,3.812 1.697,6.733c0,2.529 -0.486,4.532 -1.458,6.008c-0.971,1.475 -2.305,2.213 -4.002,2.213c-1.296,0 -2.35,-0.514 -3.162,-1.542l0,7.65l-4.365,0l0,-15.208c0,-2.54 0.606,-4.543 1.82,-6.008c1.213,-1.465 2.807,-2.198 4.781,-2.198Zm-2.236,12.646c0.432,0.711 1.095,1.066 1.99,1.066c1.491,0 2.252,-1.473 2.282,-4.418l0,-0.525c0,-1.689 -0.192,-2.969 -0.578,-3.839c-0.386,-0.87 -0.949,-1.305 -1.689,-1.305c-0.627,0 -1.118,0.435 -1.473,1.305c-0.355,0.87 -0.532,2.093 -0.532,3.669l0,4.047Z" style="fill:#fff;fill-rule:nonzero;"/><path d="M613.421,20.239c0,-2.529 0.596,-4.514 1.789,-5.954c1.193,-1.439 2.843,-2.159 4.951,-2.159c2.129,0 3.79,0.72 4.982,2.159c1.193,1.44 1.79,3.435 1.79,5.985l0,1.064c0,2.54 -0.592,4.525 -1.774,5.954c-1.183,1.429 -2.838,2.144 -4.967,2.144c-2.139,0 -3.802,-0.717 -4.99,-2.152c-1.187,-1.434 -1.781,-3.426 -1.781,-5.977l0,-1.064Zm4.38,1.095c0,2.982 0.797,4.473 2.391,4.473c1.471,0 2.262,-1.244 2.376,-3.732l0.015,-1.836c0,-1.522 -0.211,-2.65 -0.632,-3.386c-0.422,-0.735 -1.018,-1.102 -1.79,-1.102c-0.74,0 -1.318,0.367 -1.735,1.102c-0.416,0.736 -0.625,1.864 -0.625,3.386l0,1.095Z" style="fill:#fff;fill-rule:nonzero;"/><path d="M634.043,12.434l0,10.134c0,2.17 0.417,3.255 1.25,3.255c0.689,0 1.275,-0.53 1.758,-1.589c0.483,-1.059 0.725,-2.339 0.725,-3.841c-0.041,-2.468 -0.468,-5.121 -1.28,-7.959l4.118,0c1.008,2.283 1.512,4.936 1.512,7.959c0,2.859 -0.581,5.083 -1.743,6.671c-1.162,1.589 -2.813,2.383 -4.951,2.383c-1.872,0 -3.294,-0.575 -4.265,-1.727c-0.972,-1.152 -1.463,-2.802 -1.473,-4.951l0,-10.335l4.349,0Z" style="fill:#fff;fill-rule:nonzero;"/><path d="M651.473,12.126c1.995,0 3.558,0.784 4.689,2.352c1.131,1.568 1.697,3.812 1.697,6.733c0,2.529 -0.486,4.532 -1.458,6.008c-0.972,1.475 -2.306,2.213 -4.003,2.213c-1.295,0 -2.349,-0.514 -3.162,-1.542l0,7.65l-4.365,0l0,-15.208c0,-2.54 0.607,-4.543 1.82,-6.008c1.214,-1.465 2.808,-2.198 4.782,-2.198Zm-2.237,12.646c0.432,0.711 1.095,1.066 1.99,1.066c1.491,0 2.252,-1.473 2.283,-4.418l0,-0.525c0,-1.689 -0.193,-2.969 -0.578,-3.839c-0.386,-0.87 -0.949,-1.305 -1.689,-1.305c-0.628,0 -1.119,0.435 -1.473,1.305c-0.355,0.87 -0.533,2.093 -0.533,3.669l0,4.047Z" style="fill:#fff;fill-rule:nonzero;"/><path d="M666.018,22.83l2.113,-10.396l4.55,0l-4.565,16.474l0,6.648l-4.35,0l0,-6.818l-4.535,-16.304l4.566,0l2.221,10.396Z" style="fill:#fff;fill-rule:nonzero;"/><path d="M673.977,20.239c0,-2.529 0.597,-4.514 1.789,-5.954c1.193,-1.439 2.844,-2.159 4.952,-2.159c2.128,0 3.789,0.72 4.982,2.159c1.192,1.44 1.789,3.435 1.789,5.985l0,1.064c0,2.54 -0.591,4.525 -1.774,5.954c-1.182,1.429 -2.838,2.144 -4.967,2.144c-2.138,0 -3.802,-0.717 -4.989,-2.152c-1.188,-1.434 -1.782,-3.426 -1.782,-5.977l0,-1.064Zm4.381,1.095c0,2.982 0.797,4.473 2.39,4.473c1.471,0 2.263,-1.244 2.376,-3.732l0.015,-1.836c0,-1.522 -0.211,-2.65 -0.632,-3.386c-0.422,-0.735 -1.018,-1.102 -1.789,-1.102c-0.741,0 -1.319,0.367 -1.736,1.102c-0.416,0.736 -0.624,1.864 -0.624,3.386l0,1.095Zm1.82,-16.905l4.072,0l-2.545,5.322l-2.669,-0.008l1.142,-5.314Z" style="fill:#fff;fill-rule:nonzero;"/><path d="M696.173,12.126c1.81,0 3.241,0.583 4.295,1.751c1.054,1.167 1.581,2.763 1.581,4.789l-4.072,0c0,-1.944 -0.601,-2.915 -1.804,-2.915c-1.358,0 -2.093,1.342 -2.206,4.025l-0.015,1.234c0,1.306 0.205,2.296 0.617,2.97c0.411,0.673 1.141,1.205 2.19,1.596c1.347,0.452 2.249,0.838 2.707,1.157c0.457,0.319 0.807,0.704 1.049,1.157c0.241,0.452 0.378,1.033 0.409,1.743c0,0.832 -0.319,1.761 -0.957,2.784c-0.637,1.023 -1.383,1.848 -2.236,2.475l-2.252,-1.758c0.761,-0.915 1.131,-1.779 1.11,-2.591c0,-0.72 -0.385,-1.214 -1.157,-1.481c-2.036,-0.627 -3.509,-1.553 -4.419,-2.777c-0.91,-1.223 -1.385,-2.874 -1.426,-4.951l0,-0.756c0,-2.55 0.588,-4.596 1.766,-6.138c1.177,-1.543 2.784,-2.314 4.82,-2.314Z" style="fill:#fff;fill-rule:nonzero;"/><path d="M727.669,19.915c0,3.013 -0.712,5.352 -2.136,7.018c-1.424,1.666 -3.401,2.499 -5.931,2.499c-2.519,0 -4.498,-0.825 -5.938,-2.476c-1.44,-1.65 -2.17,-3.961 -2.19,-6.933l0,-3.841c0,-3.084 0.714,-5.493 2.144,-7.226c1.429,-1.733 3.414,-2.599 5.954,-2.599c2.498,0 4.468,0.851 5.907,2.553c1.44,1.702 2.17,4.09 2.19,7.165l0,3.84Zm-4.55,-3.763c0,-2.026 -0.288,-3.533 -0.864,-4.52c-0.575,-0.987 -1.47,-1.48 -2.683,-1.48c-1.203,0 -2.093,0.475 -2.669,1.426c-0.576,0.951 -0.874,2.399 -0.894,4.342l0,3.995c0,1.964 0.293,3.412 0.879,4.342c0.586,0.931 1.491,1.396 2.714,1.396c1.183,0 2.062,-0.455 2.638,-1.365c0.576,-0.91 0.869,-2.321 0.879,-4.234l0,-3.902Z" style="fill:#fff;fill-rule:nonzero;"/><path d="M737.325,12.126c1.995,0 3.558,0.784 4.689,2.352c1.131,1.568 1.697,3.812 1.697,6.733c0,2.529 -0.486,4.532 -1.458,6.008c-0.972,1.475 -2.306,2.213 -4.002,2.213c-1.296,0 -2.35,-0.514 -3.162,-1.542l0,7.65l-4.366,0l0,-15.208c0,-2.54 0.607,-4.543 1.821,-6.008c1.213,-1.465 2.807,-2.198 4.781,-2.198Zm-2.236,12.646c0.431,0.711 1.095,1.066 1.989,1.066c1.491,0 2.252,-1.473 2.283,-4.418l0,-0.525c0,-1.689 -0.193,-2.969 -0.578,-3.839c-0.386,-0.87 -0.949,-1.305 -1.689,-1.305c-0.628,0 -1.119,0.435 -1.473,1.305c-0.355,0.87 -0.532,2.093 -0.532,3.669l0,4.047Z" style="fill:#fff;fill-rule:nonzero;"/><path d="M759.505,19.761c0,3.085 -0.568,5.468 -1.704,7.149c-1.136,1.681 -2.738,2.522 -4.805,2.522c-2.077,0 -3.686,-0.846 -4.828,-2.537c-1.141,-1.692 -1.712,-4.07 -1.712,-7.134l0,-3.764c0,-3.084 0.571,-5.462 1.712,-7.133c1.142,-1.671 2.746,-2.507 4.813,-2.507c2.005,0 3.583,0.802 4.735,2.406c1.152,1.604 1.748,3.903 1.789,6.895l0,4.103Zm-4.38,-0.185l-4.304,0l0,0.787c0,3.629 0.725,5.444 2.175,5.444c1.296,0 2,-1.516 2.113,-4.55l0.016,-1.681Zm-4.304,-3.486l4.304,0l0,-0.725c0,-1.738 -0.178,-3.069 -0.532,-3.995c-0.355,-0.925 -0.892,-1.388 -1.612,-1.388c-1.316,0 -2.031,1.517 -2.144,4.55l-0.016,1.558Z" style="fill:#fff;fill-rule:nonzero;"/><path d="M762.235,20.239c0,-2.529 0.597,-4.514 1.79,-5.954c1.193,-1.439 2.843,-2.159 4.951,-2.159c2.129,0 3.789,0.72 4.982,2.159c1.193,1.44 1.789,3.435 1.789,5.985l0,1.064c0,2.54 -0.591,4.525 -1.774,5.954c-1.182,1.429 -2.838,2.144 -4.966,2.144c-2.139,0 -3.802,-0.717 -4.99,-2.152c-1.188,-1.434 -1.782,-3.426 -1.782,-5.977l0,-1.064Zm4.381,1.095c0,2.982 0.797,4.473 2.391,4.473c1.47,0 2.262,-1.244 2.375,-3.732l0.016,-1.836c0,-1.522 -0.211,-2.65 -0.633,-3.386c-0.421,-0.735 -1.018,-1.102 -1.789,-1.102c-0.74,0 -1.319,0.367 -1.735,1.102c-0.417,0.736 -0.625,1.864 -0.625,3.386l0,1.095Z" style="fill:#fff;fill-rule:nonzero;"/><path d="M793.794,15.859l-2.129,0l0,8.02c0,0.669 0.095,1.124 0.286,1.365c0.19,0.242 0.532,0.363 1.025,0.363c0.391,0 0.736,-0.041 1.034,-0.124l-0.016,3.409c-0.73,0.268 -1.542,0.401 -2.437,0.401c-2.786,0 -4.205,-1.588 -4.257,-4.766l0,-8.668l-2.853,0l0,13.265l-4.365,0l0,-13.265l-2.237,0l0,-3.425l15.949,0l0,3.425Z" style="fill:#fff;fill-rule:nonzero;"/><path d="M796.339,24.404c0,-1.892 0.889,-3.183 2.668,-3.872c-0.74,-0.37 -1.329,-0.866 -1.766,-1.488c-0.437,-0.622 -0.655,-1.304 -0.655,-2.044c0,-1.512 0.581,-2.699 1.743,-3.563c1.162,-0.864 2.73,-1.296 4.704,-1.296c1.758,0 3.198,0.478 4.319,1.435c1.121,0.956 1.681,2.18 1.681,3.671l-4.365,0c0,-0.555 -0.172,-0.98 -0.517,-1.273c-0.344,-0.293 -0.794,-0.439 -1.349,-0.439c-0.576,0 -1.031,0.174 -1.365,0.524c-0.335,0.35 -0.502,0.787 -0.502,1.311c0,0.525 0.167,0.944 0.502,1.257c0.334,0.314 0.794,0.471 1.38,0.471l2.468,0l0,2.992l-2.453,0c-1.419,0 -2.128,0.658 -2.128,1.974c0,0.566 0.188,1.039 0.563,1.419c0.375,0.381 0.882,0.571 1.519,0.571c0.638,0 1.149,-0.172 1.535,-0.517c0.386,-0.344 0.578,-0.794 0.578,-1.349l4.35,0c0,1.594 -0.581,2.866 -1.743,3.817c-1.162,0.951 -2.653,1.427 -4.473,1.427c-1.985,0 -3.596,-0.463 -4.836,-1.388c-1.239,-0.926 -1.858,-2.139 -1.858,-3.64Z" style="fill:#fff;fill-rule:nonzero;"/><path d="M813.028,9.858c0,-1.563 0.481,-2.784 1.442,-3.663c0.962,-0.879 2.301,-1.319 4.018,-1.319c0.802,0 1.553,0.114 2.252,0.34l1.018,0.339l0.046,3.455c-1.131,-0.483 -2.102,-0.725 -2.915,-0.725c-1.151,0 -1.727,0.489 -1.727,1.466c0,0.473 0.133,0.868 0.401,1.187c0.267,0.319 0.668,0.617 1.203,0.895c3.928,1.625 5.99,4.365 6.185,8.221l0.015,0.972c0,2.529 -0.614,4.563 -1.843,6.1c-1.229,1.537 -2.866,2.306 -4.912,2.306c-2.057,0 -3.702,-0.745 -4.936,-2.236c-1.234,-1.492 -1.851,-3.574 -1.851,-6.247c0,-1.656 0.373,-3.129 1.118,-4.419c0.746,-1.291 1.684,-2.106 2.815,-2.445l-0.046,-0.093c-1.522,-1.049 -2.283,-2.427 -2.283,-4.134Zm2.746,10.975c0,1.555 0.213,2.778 0.64,3.669c0.426,0.891 1.025,1.336 1.797,1.336c0.761,0 1.349,-0.435 1.766,-1.305c0.416,-0.87 0.624,-2.207 0.624,-4.009c0,-1.164 -0.218,-2.214 -0.655,-3.151c-0.437,-0.937 -1.031,-1.509 -1.782,-1.715c-0.761,0 -1.349,0.44 -1.766,1.321c-0.416,0.88 -0.624,2.165 -0.624,3.854Z" style="fill:#fff;fill-rule:nonzero;"/><path d="M832.339,12.434l-0.015,11.445c0,0.628 0.09,1.072 0.27,1.334c0.18,0.263 0.527,0.394 1.041,0.394c0.401,0 0.751,-0.041 1.049,-0.124l-0.031,3.409c-0.73,0.268 -1.542,0.401 -2.437,0.401c-2.807,0 -4.221,-1.624 -4.242,-4.874l0,-11.985l4.365,0Z" style="fill:#fff;fill-rule:nonzero;"/><path d="M843.337,23l-1.249,0l0,6.124l-4.366,0l0,-16.69l4.366,0l0,6.263l0.894,0l3.1,-6.263l5.507,0l-4.689,7.805l4.797,8.885l-5.599,0l-2.761,-6.124Z" style="fill:#fff;fill-rule:nonzero;"/><path d="M853.532,20.239c0,-2.529 0.597,-4.514 1.79,-5.954c1.193,-1.439 2.843,-2.159 4.951,-2.159c2.129,0 3.789,0.72 4.982,2.159c1.193,1.44 1.789,3.435 1.789,5.985l0,1.064c0,2.54 -0.591,4.525 -1.774,5.954c-1.182,1.429 -2.838,2.144 -4.966,2.144c-2.139,0 -3.802,-0.717 -4.99,-2.152c-1.188,-1.434 -1.782,-3.426 -1.782,-5.977l0,-1.064Zm4.381,1.095c0,2.982 0.797,4.473 2.391,4.473c1.47,0 2.262,-1.244 2.375,-3.732l0.016,-1.836c0,-1.522 -0.211,-2.65 -0.633,-3.386c-0.421,-0.735 -1.018,-1.102 -1.789,-1.102c-0.74,0 -1.319,0.367 -1.735,1.102c-0.417,0.736 -0.625,1.864 -0.625,3.386l0,1.095Zm1.82,-16.905l4.072,0l-2.545,5.322l-2.668,-0.008l1.141,-5.314Z" style="fill:#fff;fill-rule:nonzero;"/><path d="M875.728,12.126c1.81,0 3.242,0.583 4.296,1.751c1.054,1.167 1.581,2.763 1.581,4.789l-4.072,0c0,-1.944 -0.602,-2.915 -1.805,-2.915c-1.357,0 -2.092,1.342 -2.206,4.025l-0.015,1.234c0,1.306 0.206,2.296 0.617,2.97c0.411,0.673 1.141,1.205 2.19,1.596c1.347,0.452 2.25,0.838 2.707,1.157c0.458,0.319 0.808,0.704 1.049,1.157c0.242,0.452 0.378,1.033 0.409,1.743c0,0.832 -0.319,1.761 -0.956,2.784c-0.638,1.023 -1.383,1.848 -2.237,2.475l-2.252,-1.758c0.761,-0.915 1.131,-1.779 1.111,-2.591c0,-0.72 -0.386,-1.214 -1.157,-1.481c-2.036,-0.627 -3.509,-1.553 -4.419,-2.777c-0.91,-1.223 -1.386,-2.874 -1.427,-4.951l0,-0.756c0,-2.55 0.589,-4.596 1.766,-6.138c1.177,-1.543 2.784,-2.314 4.82,-2.314Z" style="fill:#fff;fill-rule:nonzero;"/><g transform="matrix(0.415323,0,0,0.415323,525.368,3.93774)"><path d="M88.248,103.257l-7.507,0l0,16.514c0,2.208 0.632,3.312 1.895,3.312c0.649,0 1.264,-0.216 1.846,-0.648l1.022,3.259c-1.13,0.87 -2.493,1.305 -4.09,1.305c-3.291,0 -4.987,-2.32 -5.087,-6.958l0,-16.784l-7.107,0l0,-3.74l19.028,0l0,3.74Z" style="fill:#fff;fill-rule:nonzero;"/><path d="M95.41,124.081c0,-0.798 0.237,-1.463 0.711,-1.995c0.474,-0.532 1.184,-0.798 2.132,-0.798c0.948,0 1.667,0.266 2.157,0.798c0.491,0.532 0.736,1.197 0.736,1.995c0,0.765 -0.245,1.405 -0.736,1.92c-0.49,0.516 -1.209,0.773 -2.157,0.773c-0.948,0 -1.658,-0.257 -2.132,-0.773c-0.474,-0.515 -0.711,-1.155 -0.711,-1.92Z" style="fill:#fff;fill-rule:nonzero;"/><path d="M120.453,90.189l3.99,0l11.971,36.311l-28.829,0l12.868,-36.311Zm-6.858,32.396l16.884,0l-8.105,-25.637l-8.779,25.637Z" style="fill:#fff;fill-rule:nonzero;"/><path d="M148.265,99.517l0,20.446c0.05,1.947 0.823,2.921 2.319,2.921c0.765,0 1.347,-0.1 1.746,-0.299l-0.025,3.744c-0.948,0.313 -1.987,0.47 -3.118,0.47c-1.712,0 -3.025,-0.607 -3.94,-1.82c-0.914,-1.214 -1.371,-2.993 -1.371,-5.337l0,-20.125l4.389,0Z" style="fill:#fff;fill-rule:nonzero;"/><path d="M162.709,118.919c0,1.263 0.466,2.306 1.397,3.129c0.931,0.823 2.161,1.235 3.691,1.235c1.429,0 2.639,-0.457 3.628,-1.372c0.989,-0.914 1.484,-2.045 1.484,-3.391l4.389,0c0,2.593 -0.893,4.655 -2.681,6.184c-1.787,1.53 -4.061,2.295 -6.82,2.295c-2.843,0 -5.146,-0.728 -6.908,-2.182c-1.763,-1.455 -2.644,-3.421 -2.644,-5.898c0,-3.093 1.438,-5.188 4.314,-6.285c-1.23,-0.598 -2.19,-1.405 -2.88,-2.419c-0.69,-1.014 -1.035,-2.128 -1.035,-3.342c0,-2.477 0.815,-4.401 2.444,-5.773c1.629,-1.372 3.866,-2.057 6.709,-2.057c2.61,0 4.784,0.744 6.521,2.232c1.737,1.488 2.606,3.412 2.606,5.773l-4.389,0c0,-1.18 -0.449,-2.186 -1.347,-3.018c-0.898,-0.831 -2.028,-1.247 -3.391,-1.247c-1.463,0 -2.619,0.387 -3.467,1.16c-0.848,0.773 -1.272,1.758 -1.272,2.955c0,2.66 1.538,3.99 4.614,3.99l4.264,0l0,3.691l-4.638,0c-3.059,0.05 -4.589,1.497 -4.589,4.34Z" style="fill:#fff;fill-rule:nonzero;"/><path d="M188.875,99.517l0,16.035c0,5.137 1.305,7.706 3.915,7.706c1.696,0 3.113,-1.06 4.252,-3.18c1.139,-2.119 1.708,-4.651 1.708,-7.593c-0.083,-3.808 -0.956,-8.13 -2.618,-12.968l4.588,0c1.613,3.89 2.419,8.213 2.419,12.968c0,4.405 -0.914,7.926 -2.743,10.561c-1.829,2.635 -4.297,3.953 -7.406,3.953c-2.794,0 -4.909,-0.931 -6.347,-2.793c-1.438,-1.862 -2.166,-4.606 -2.182,-8.23l0,-16.459l4.414,0Z" style="fill:#fff;fill-rule:nonzero;"/><path d="M229.305,110.539c0,5.337 -0.844,9.415 -2.531,12.233c-1.688,2.818 -4.086,4.227 -7.195,4.227c-3.076,0 -5.466,-1.401 -7.17,-4.202c-1.704,-2.802 -2.564,-6.829 -2.581,-12.083l0,-4.788c0,-5.237 0.835,-9.252 2.506,-12.046c1.671,-2.793 4.078,-4.189 7.22,-4.189c3.109,0 5.495,1.346 7.157,4.04c1.663,2.693 2.527,6.567 2.594,11.621l0,5.187Zm-15.063,-4.015l10.624,0l0,-1.371c0,-3.774 -0.453,-6.663 -1.359,-8.667c-0.906,-2.003 -2.224,-3.005 -3.953,-3.005c-1.712,0 -3.026,1.002 -3.94,3.005c-0.915,2.004 -1.372,4.893 -1.372,8.667l0,1.371Zm10.624,3.791l-10.624,0l0,0.972c0,3.691 0.461,6.605 1.384,8.741c0.923,2.137 2.241,3.205 3.953,3.205c1.712,0 3.022,-1.039 3.928,-3.117c0.906,-2.078 1.359,-5.03 1.359,-8.853l0,-0.948Z" style="fill:#fff;fill-rule:nonzero;"/><path d="M241.355,99.517l0,16.035c0,5.137 1.305,7.706 3.916,7.706c1.695,0 3.113,-1.06 4.252,-3.18c1.139,-2.119 1.708,-4.651 1.708,-7.593c-0.083,-3.808 -0.956,-8.13 -2.619,-12.968l4.589,0c1.613,3.89 2.419,8.213 2.419,12.968c0,4.405 -0.914,7.926 -2.743,10.561c-1.829,2.635 -4.298,3.953 -7.407,3.953c-2.793,0 -4.909,-0.931 -6.347,-2.793c-1.438,-1.862 -2.165,-4.606 -2.182,-8.23l0,-16.459l4.414,0Z" style="fill:#fff;fill-rule:nonzero;"/><path d="M270.339,119.792l5.112,-20.275l4.489,0l-8.005,26.983l-3.292,0l-8.105,-26.983l4.489,0l5.312,20.275Z" style="fill:#fff;fill-rule:nonzero;"/><path d="M304.061,103.257l-7.507,0l0,16.514c0,2.208 0.632,3.312 1.896,3.312c0.648,0 1.263,-0.216 1.845,-0.648l1.023,3.259c-1.131,0.87 -2.494,1.305 -4.09,1.305c-3.292,0 -4.988,-2.32 -5.088,-6.958l0,-16.784l-7.107,0l0,-3.74l19.028,0l0,3.74Z" style="fill:#fff;fill-rule:nonzero;"/><path d="M315.014,99.517l0.249,3.142c1.696,-2.428 3.866,-3.641 6.509,-3.641c2.66,0 4.597,0.819 5.811,2.456c1.213,1.638 1.837,4.119 1.87,7.444l0,27.931l-4.389,0l0,-27.582c0,-2.261 -0.353,-3.902 -1.06,-4.925c-0.706,-1.022 -1.916,-1.534 -3.628,-1.534c-2.228,0 -3.858,1.247 -4.888,3.741l0,19.951l-4.439,0l0,-26.983l3.965,0Zm4.863,-12.769l4.339,0l-2.893,8.404l-2.793,-0.012l1.347,-8.392Z" style="fill:#fff;fill-rule:nonzero;"/><path d="M346.865,99.018c2.694,0 4.851,0.881 6.472,2.643c1.621,1.763 2.431,4.148 2.431,7.158l-4.139,0c0,-1.896 -0.424,-3.371 -1.272,-4.427c-0.848,-1.056 -2.012,-1.584 -3.492,-1.584c-1.712,0 -3.067,0.902 -4.065,2.706c-0.997,1.804 -1.496,4.211 -1.496,7.22l0,0.798c0,4.356 2.128,7.34 6.384,8.953l3.018,1.022c1.313,0.466 2.265,1.098 2.855,1.896c0.59,0.798 0.886,1.845 0.886,3.142c-0.034,1.097 -0.424,2.344 -1.173,3.741c-0.748,1.396 -1.629,2.577 -2.643,3.541l-2.294,-2.12c0.831,-1.08 1.355,-1.916 1.571,-2.506c0.216,-0.59 0.324,-1.284 0.324,-2.082c0,-0.749 -0.262,-1.301 -0.786,-1.659c-0.523,-0.357 -1.35,-0.686 -2.481,-0.985c-6.368,-1.646 -9.718,-5.586 -10.05,-11.821l-0.025,-2.169c0,-2.528 0.416,-4.83 1.247,-6.908c0.831,-2.079 2.003,-3.691 3.516,-4.839c1.513,-1.147 3.25,-1.72 5.212,-1.72Z" style="fill:#fff;fill-rule:nonzero;"/><path d="M400.269,111.537c0,4.954 -1.056,8.77 -3.168,11.447c-2.111,2.676 -5.112,4.015 -9.002,4.015c-3.741,0 -6.696,-1.301 -8.866,-3.903c-2.17,-2.602 -3.296,-6.28 -3.379,-11.035l0,-6.834c0,-4.854 1.072,-8.657 3.217,-11.409c2.145,-2.752 5.137,-4.127 8.978,-4.127c3.824,0 6.804,1.317 8.94,3.952c2.137,2.636 3.23,6.397 3.28,11.285l0,6.609Zm-4.564,-6.359c0,-3.841 -0.628,-6.696 -1.883,-8.567c-1.255,-1.87 -3.18,-2.805 -5.773,-2.805c-2.511,0 -4.41,0.947 -5.699,2.843c-1.288,1.895 -1.941,4.688 -1.957,8.379l0,6.509c0,3.707 0.644,6.534 1.932,8.479c1.289,1.945 3.213,2.918 5.774,2.918c2.56,0 4.455,-0.898 5.686,-2.694c1.23,-1.795 1.87,-4.547 1.92,-8.254l0,-6.808Z" style="fill:#fff;fill-rule:nonzero;"/><path d="M417.581,99.018c3.126,0 5.561,1.272 7.307,3.815c1.746,2.544 2.619,6.277 2.619,11.198c0,3.94 -0.774,7.086 -2.32,9.439c-1.546,2.353 -3.682,3.529 -6.409,3.529c-2.577,0 -4.655,-0.89 -6.235,-2.669l0,12.544l-4.439,0l0,-24.863c0,-2.594 0.404,-4.876 1.21,-6.846c0.806,-1.97 1.933,-3.487 3.379,-4.551c1.446,-1.064 3.076,-1.596 4.888,-1.596Zm-5.038,20.873c1.081,2.228 2.702,3.342 4.863,3.342c1.796,0 3.197,-0.802 4.203,-2.407c1.005,-1.604 1.508,-4.044 1.508,-7.319c0,-3.458 -0.482,-6.106 -1.446,-7.943c-0.964,-1.837 -2.328,-2.756 -4.09,-2.756c-1.496,0 -2.71,0.906 -3.641,2.719c-0.931,1.812 -1.397,4.106 -1.397,6.883l0,7.481Z" style="fill:#fff;fill-rule:nonzero;"/><path d="M453.822,110.539c0,5.337 -0.844,9.415 -2.532,12.233c-1.687,2.818 -4.085,4.227 -7.194,4.227c-3.076,0 -5.466,-1.401 -7.17,-4.202c-1.704,-2.802 -2.565,-6.829 -2.581,-12.083l0,-4.788c0,-5.237 0.835,-9.252 2.506,-12.046c1.671,-2.793 4.077,-4.189 7.22,-4.189c3.109,0 5.495,1.346 7.157,4.04c1.663,2.693 2.527,6.567 2.594,11.621l0,5.187Zm-15.063,-4.015l10.624,0l0,-1.371c0,-3.774 -0.453,-6.663 -1.36,-8.667c-0.906,-2.003 -2.223,-3.005 -3.952,-3.005c-1.713,0 -3.026,1.002 -3.941,3.005c-0.914,2.004 -1.371,4.893 -1.371,8.667l0,1.371Zm10.624,3.791l-10.624,0l0,0.972c0,3.691 0.461,6.605 1.384,8.741c0.923,2.137 2.24,3.205 3.953,3.205c1.712,0 3.021,-1.039 3.927,-3.117c0.907,-2.078 1.36,-5.03 1.36,-8.853l0,-0.948Z" style="fill:#fff;fill-rule:nonzero;"/><path d="M460.435,111.761c0,-3.923 0.952,-7.028 2.856,-9.314c1.903,-2.286 4.418,-3.429 7.544,-3.429c3.125,0 5.64,1.114 7.544,3.341c1.903,2.228 2.88,5.263 2.93,9.103l0,2.843c0,3.907 -0.948,6.999 -2.843,9.277c-1.895,2.278 -4.422,3.417 -7.581,3.417c-3.126,0 -5.632,-1.106 -7.519,-3.317c-1.887,-2.211 -2.864,-5.204 -2.931,-8.978l0,-2.943Zm4.415,2.544c0,2.777 0.544,4.959 1.633,6.546c1.089,1.588 2.556,2.382 4.402,2.382c3.89,0 5.893,-2.81 6.01,-8.429l0,-3.043c0,-2.76 -0.549,-4.942 -1.646,-6.546c-1.097,-1.604 -2.569,-2.407 -4.414,-2.407c-1.812,0 -3.263,0.803 -4.352,2.407c-1.089,1.604 -1.633,3.778 -1.633,6.521l0,2.569Z" style="fill:#fff;fill-rule:nonzero;"/><path d="M509.32,103.332l-3.018,0l0,16.331c0,1.098 0.175,1.91 0.524,2.434c0.349,0.525 0.948,0.787 1.796,0.787c0.748,0 1.321,-0.1 1.72,-0.299l0,3.744c-0.947,0.313 -1.986,0.47 -3.117,0.47c-1.746,0 -3.067,-0.615 -3.965,-1.845c-0.898,-1.23 -1.355,-2.96 -1.372,-5.187l0,-16.435l-7.806,0l0,23.168l-4.389,0l0,-23.168l-3.441,0l0,-3.815l23.068,0l0,3.815Z" style="fill:#fff;fill-rule:nonzero;"/><path d="M519.774,118.919c0,1.263 0.466,2.306 1.397,3.129c0.931,0.823 2.161,1.235 3.691,1.235c1.429,0 2.639,-0.457 3.628,-1.372c0.989,-0.914 1.484,-2.045 1.484,-3.391l4.389,0c0,2.593 -0.893,4.655 -2.681,6.184c-1.787,1.53 -4.061,2.295 -6.82,2.295c-2.843,0 -5.146,-0.728 -6.908,-2.182c-1.763,-1.455 -2.644,-3.421 -2.644,-5.898c0,-3.093 1.438,-5.188 4.315,-6.285c-1.231,-0.598 -2.191,-1.405 -2.881,-2.419c-0.69,-1.014 -1.035,-2.128 -1.035,-3.342c0,-2.477 0.815,-4.401 2.444,-5.773c1.629,-1.372 3.866,-2.057 6.709,-2.057c2.61,0 4.784,0.744 6.521,2.232c1.737,1.488 2.606,3.412 2.606,5.773l-4.389,0c0,-1.18 -0.449,-2.186 -1.347,-3.018c-0.898,-0.831 -2.028,-1.247 -3.391,-1.247c-1.463,0 -2.619,0.387 -3.467,1.16c-0.848,0.773 -1.272,1.758 -1.272,2.955c0,2.66 1.538,3.99 4.614,3.99l4.264,0l0,3.691l-4.638,0c-3.059,0.05 -4.589,1.497 -4.589,4.34Z" style="fill:#fff;fill-rule:nonzero;"/><path d="M543.296,94.853c0,-2.294 0.715,-4.094 2.145,-5.399c1.43,-1.305 3.383,-1.958 5.86,-1.958c1.863,0 3.725,0.46 5.587,1.381l0.025,4.006c-0.815,-0.432 -1.767,-0.786 -2.856,-1.06c-1.089,-0.274 -2.041,-0.412 -2.855,-0.412c-1.098,0 -1.95,0.299 -2.557,0.896c-0.606,0.597 -0.91,1.409 -0.91,2.438c0,1.874 1.484,3.428 4.452,4.664c2.967,1.235 5.166,2.967 6.596,5.195c1.43,2.228 2.178,4.979 2.244,8.255l0,0.947c0,3.924 -0.918,7.104 -2.755,9.539c-1.837,2.436 -4.302,3.654 -7.395,3.654c-3.125,0 -5.607,-1.218 -7.444,-3.654c-1.837,-2.435 -2.755,-5.79 -2.755,-10.062c0,-2.81 0.64,-5.3 1.92,-7.47c1.28,-2.169 2.909,-3.537 4.888,-4.102l-0.025,-0.125c-1.28,-0.648 -2.294,-1.554 -3.043,-2.718c-0.748,-1.164 -1.122,-2.502 -1.122,-4.015Zm1.821,18.953c0,2.926 0.511,5.233 1.533,6.921c1.023,1.687 2.432,2.531 4.227,2.531c1.763,0 3.155,-0.827 4.178,-2.481c1.022,-1.655 1.533,-4.153 1.533,-7.494c0,-2.311 -0.536,-4.369 -1.608,-6.173c-1.072,-1.804 -2.448,-2.905 -4.127,-3.304c-1.746,0 -3.139,0.848 -4.178,2.544c-1.039,1.695 -1.558,4.181 -1.558,7.456Z" style="fill:#fff;fill-rule:nonzero;"/><path d="M573.951,99.517l0,20.446c0.05,1.947 0.823,2.921 2.319,2.921c0.765,0 1.347,-0.1 1.746,-0.299l-0.025,3.744c-0.948,0.313 -1.987,0.47 -3.118,0.47c-1.712,0 -3.026,-0.607 -3.94,-1.82c-0.914,-1.214 -1.372,-2.993 -1.372,-5.337l0,-20.125l4.39,0Z" style="fill:#fff;fill-rule:nonzero;"/><path d="M591.413,115.003l-1.896,0l0,11.497l-4.414,0l0,-26.983l4.414,0l0,11.421l1.546,0l7.956,-11.421l5.287,0l-9.452,13.017l10.1,13.966l-5.536,0l-8.005,-11.497Z" style="fill:#fff;fill-rule:nonzero;"/><path d="M615.184,99.517l0.249,3.142c1.696,-2.428 3.866,-3.641 6.509,-3.641c2.66,0 4.597,0.819 5.811,2.456c1.214,1.638 1.837,4.119 1.87,7.444l0,27.931l-4.389,0l0,-27.582c0,-2.261 -0.353,-3.902 -1.06,-4.925c-0.706,-1.022 -1.916,-1.534 -3.628,-1.534c-2.228,0 -3.857,1.247 -4.888,3.741l0,19.951l-4.439,0l0,-26.983l3.965,0Zm4.863,-12.769l4.339,0l-2.893,8.404l-2.793,-0.012l1.347,-8.392Z" style="fill:#fff;fill-rule:nonzero;"/><path d="M647.036,99.018c2.693,0 4.85,0.881 6.471,2.643c1.621,1.763 2.432,4.148 2.432,7.158l-4.14,0c0,-1.896 -0.424,-3.371 -1.272,-4.427c-0.848,-1.056 -2.012,-1.584 -3.491,-1.584c-1.713,0 -3.068,0.902 -4.065,2.706c-0.998,1.804 -1.497,4.211 -1.497,7.22l0,0.798c0,4.356 2.128,7.34 6.384,8.953l3.018,1.022c1.313,0.466 2.265,1.098 2.856,1.896c0.59,0.798 0.885,1.845 0.885,3.142c-0.033,1.097 -0.424,2.344 -1.172,3.741c-0.748,1.396 -1.63,2.577 -2.644,3.541l-2.294,-2.12c0.831,-1.08 1.355,-1.916 1.571,-2.506c0.216,-0.59 0.324,-1.284 0.324,-2.082c0,-0.749 -0.262,-1.301 -0.785,-1.659c-0.524,-0.357 -1.351,-0.686 -2.482,-0.985c-6.367,-1.646 -9.717,-5.586 -10.05,-11.821l-0.025,-2.169c0,-2.528 0.416,-4.83 1.247,-6.908c0.831,-2.079 2.003,-3.691 3.516,-4.839c1.513,-1.147 3.251,-1.72 5.213,-1.72Z" style="fill:#fff;fill-rule:nonzero;"/><path d="M682.882,115.003l-1.895,0l0,11.497l-4.414,0l0,-26.983l4.414,0l0,11.421l1.546,0l7.955,-11.421l5.287,0l-9.451,13.017l10.1,13.966l-5.537,0l-8.005,-11.497Z" style="fill:#fff;fill-rule:nonzero;"/><path d="M705.307,88.643c1.347,0 2.444,0.341 3.292,1.023c0.848,0.681 1.504,1.795 1.97,3.342l9.152,27.656c0.25,0.848 0.512,1.434 0.786,1.759c0.274,0.324 0.628,0.486 1.06,0.486c0.349,0 0.607,-0.025 0.773,-0.075l0.1,3.791c-0.549,0.199 -1.123,0.299 -1.721,0.299c-1.413,0 -2.473,-0.349 -3.18,-1.047c-0.706,-0.699 -1.351,-1.863 -1.932,-3.492l-4.888,-14.739l-5.362,18.854l-4.913,0l8.08,-25.437l-2.145,-6.085c-0.299,-0.948 -0.615,-1.609 -0.947,-1.983c-0.333,-0.374 -0.765,-0.561 -1.297,-0.561l-0.998,0.05l0.025,-3.541c0.516,-0.2 1.23,-0.3 2.145,-0.3Z" style="fill:#fff;fill-rule:nonzero;"/><path d="M734.44,99.517l0,20.446c0.05,1.947 0.823,2.921 2.319,2.921c0.765,0 1.347,-0.1 1.746,-0.299l-0.025,3.744c-0.948,0.313 -1.987,0.47 -3.117,0.47c-1.713,0 -3.026,-0.607 -3.94,-1.82c-0.915,-1.214 -1.372,-2.993 -1.372,-5.337l0,-20.125l4.389,0Z" style="fill:#fff;fill-rule:nonzero;"/><path d="M751.977,119.792l5.112,-20.275l4.489,0l-8.005,26.983l-3.292,0l-8.105,-26.983l4.489,0l5.312,20.275Z" style="fill:#fff;fill-rule:nonzero;"/><path d="M773.23,99.517l0,20.446c0.049,1.947 0.822,2.921 2.319,2.921c0.765,0 1.346,-0.1 1.745,-0.299l-0.024,3.744c-0.948,0.313 -1.987,0.47 -3.118,0.47c-1.712,0 -3.026,-0.607 -3.94,-1.82c-0.914,-1.214 -1.372,-2.993 -1.372,-5.337l0,-20.125l4.39,0Z" style="fill:#fff;fill-rule:nonzero;"/><path d="M790.691,115.003l-1.895,0l0,11.497l-4.414,0l0,-26.983l4.414,0l0,11.421l1.546,0l7.956,-11.421l5.287,0l-9.452,13.017l10.1,13.966l-5.536,0l-8.006,-11.497Z" style="fill:#fff;fill-rule:nonzero;"/><path d="M814.463,99.517l0.249,3.142c1.696,-2.428 3.866,-3.641 6.509,-3.641c2.66,0 4.597,0.819 5.811,2.456c1.214,1.638 1.837,4.119 1.87,7.444l0,27.931l-4.389,0l0,-27.582c0,-2.261 -0.353,-3.902 -1.06,-4.925c-0.706,-1.022 -1.916,-1.534 -3.628,-1.534c-2.228,0 -3.857,1.247 -4.888,3.741l0,19.951l-4.439,0l0,-26.983l3.965,0Zm4.863,-12.769l4.339,0l-2.893,8.404l-2.793,-0.012l1.347,-8.392Z" style="fill:#fff;fill-rule:nonzero;"/><path d="M846.314,99.018c2.694,0 4.851,0.881 6.472,2.643c1.621,1.763 2.431,4.148 2.431,7.158l-4.139,0c0,-1.896 -0.424,-3.371 -1.272,-4.427c-0.848,-1.056 -2.012,-1.584 -3.492,-1.584c-1.712,0 -3.067,0.902 -4.065,2.706c-0.997,1.804 -1.496,4.211 -1.496,7.22l0,0.798c0,4.356 2.128,7.34 6.384,8.953l3.018,1.022c1.313,0.466 2.265,1.098 2.855,1.896c0.591,0.798 0.886,1.845 0.886,3.142c-0.034,1.097 -0.424,2.344 -1.172,3.741c-0.749,1.396 -1.63,2.577 -2.644,3.541l-2.294,-2.12c0.831,-1.08 1.355,-1.916 1.571,-2.506c0.216,-0.59 0.324,-1.284 0.324,-2.082c0,-0.749 -0.262,-1.301 -0.785,-1.659c-0.524,-0.357 -1.351,-0.686 -2.482,-0.985c-6.367,-1.646 -9.718,-5.586 -10.05,-11.821l-0.025,-2.169c0,-2.528 0.416,-4.83 1.247,-6.908c0.831,-2.079 2.003,-3.691 3.516,-4.839c1.513,-1.147 3.251,-1.72 5.212,-1.72Z" style="fill:#fff;fill-rule:nonzero;"/><path d="M90.018,161.522l-14.29,0l0,32.395l-4.588,0l0,-36.31l18.878,0l0,3.915Z" style="fill:#fff;fill-rule:nonzero;"/><path d="M87.056,191.498c0,-0.798 0.236,-1.463 0.71,-1.995c0.474,-0.532 1.185,-0.798 2.133,-0.798c0.947,0 1.666,0.266 2.157,0.798c0.49,0.532 0.735,1.197 0.735,1.995c0,0.765 -0.245,1.405 -0.735,1.921c-0.491,0.515 -1.21,0.773 -2.157,0.773c-0.948,0 -1.659,-0.258 -2.133,-0.773c-0.474,-0.516 -0.71,-1.156 -0.71,-1.921Z" style="fill:#fff;fill-rule:nonzero;"/><path d="M125.815,193.917l-4.589,0l-14.539,-27.981l0,27.981l-4.588,0l0,-36.31l4.588,0l14.589,28.106l0,-28.106l4.539,0l0,36.31Z" style="fill:#fff;fill-rule:nonzero;"/><path d="M134.673,191.498c0,-0.798 0.237,-1.463 0.711,-1.995c0.474,-0.532 1.185,-0.798 2.132,-0.798c0.948,0 1.667,0.266 2.157,0.798c0.491,0.532 0.736,1.197 0.736,1.995c0,0.765 -0.245,1.405 -0.736,1.921c-0.49,0.515 -1.209,0.773 -2.157,0.773c-0.947,0 -1.658,-0.258 -2.132,-0.773c-0.474,-0.516 -0.711,-1.156 -0.711,-1.921Z" style="fill:#fff;fill-rule:nonzero;"/><path d="M166.649,184.416l-12.269,0l-2.818,9.501l-4.689,0l11.696,-36.31l3.916,0l11.721,36.31l-4.689,0l-2.868,-9.501Zm-11.072,-3.915l9.9,0l-4.962,-16.51l-4.938,16.51Z" style="fill:#fff;fill-rule:nonzero;"/><path d="M196.386,159.004l-0.748,8.928l-2.768,0l0.025,-12.32l3.491,0l0,3.392Zm6.734,0l-0.749,8.928l-2.768,0l0.025,-12.32l3.492,0l0,3.392Z" style="fill:#fff;fill-rule:nonzero;"/><path d="M230.108,161.522l-14.29,0l0,32.395l-4.588,0l0,-36.31l18.878,0l0,3.915Z" style="fill:#fff;fill-rule:nonzero;"/><path d="M227.145,191.498c0,-0.798 0.237,-1.463 0.711,-1.995c0.474,-0.532 1.185,-0.798 2.132,-0.798c0.948,0 1.667,0.266 2.158,0.798c0.49,0.532 0.735,1.197 0.735,1.995c0,0.765 -0.245,1.405 -0.735,1.921c-0.491,0.515 -1.21,0.773 -2.158,0.773c-0.947,0 -1.658,-0.258 -2.132,-0.773c-0.474,-0.516 -0.711,-1.156 -0.711,-1.921Z" style="fill:#fff;fill-rule:nonzero;"/><path d="M261.291,161.522l-14.29,0l0,32.395l-4.588,0l0,-36.31l18.878,0l0,3.915Z" style="fill:#fff;fill-rule:nonzero;"/><path d="M285.786,177.134l-12.844,0l0,12.868l14.964,0l0,3.915l-19.527,0l0,-36.31l19.277,0l0,3.915l-14.714,0l0,11.696l12.844,0l0,3.916Z" style="fill:#fff;fill-rule:nonzero;"/><path d="M318.735,193.917l-4.589,0l-14.539,-27.981l0,27.981l-4.589,0l0,-36.31l4.589,0l14.589,28.106l0,-28.106l4.539,0l0,36.31Z" style="fill:#fff;fill-rule:nonzero;"/><path d="M351.634,193.917l-4.589,0l-14.539,-27.981l0,27.981l-4.589,0l0,-36.31l4.589,0l14.589,28.106l0,-28.106l4.539,0l0,36.31Z" style="fill:#fff;fill-rule:nonzero;"/><path d="M384.582,193.917l-4.588,0l0,-16.783l-14.614,0l0,16.783l-4.564,0l0,-36.31l4.564,0l0,15.611l14.614,0l0,-15.611l4.588,0l0,36.31Z" style="fill:#fff;fill-rule:nonzero;"/><path d="M399.65,157.607l9.477,29.627l9.476,-29.627l5.886,0l0,36.31l-4.564,0l0,-14.14l0.424,-14.165l-9.501,28.305l-3.492,0l-9.452,-28.205l0.424,14.065l0,14.14l-4.563,0l0,-36.31l5.885,0Z" style="fill:#fff;fill-rule:nonzero;"/><path d="M451.004,184.416l-12.27,0l-2.818,9.501l-4.689,0l11.697,-36.31l3.915,0l11.721,36.31l-4.688,0l-2.868,-9.501Zm-11.073,-3.915l9.901,0l-4.963,-16.51l-4.938,16.51Z" style="fill:#fff;fill-rule:nonzero;"/><path d="M485.997,161.522l-9.551,0l0,32.395l-4.564,0l0,-32.395l-9.526,0l0,-3.915l23.641,0l0,3.915Z" style="fill:#fff;fill-rule:nonzero;"/><path d="M507.599,184.416l-12.27,0l-2.818,9.501l-4.688,0l11.696,-36.31l3.915,0l11.722,36.31l-4.689,0l-2.868,-9.501Zm-11.073,-3.915l9.901,0l-4.963,-16.51l-4.938,16.51Z" style="fill:#fff;fill-rule:nonzero;"/><path d="M534.139,176l-9.352,14.002l16.21,0l0,3.915l-21.547,0l0,-3.566l9.801,-14.626l-9.801,-14.552l0,-3.566l20.574,0l0,3.915l-15.187,0l9.302,13.878l0,0.6Z" style="fill:#fff;fill-rule:nonzero;"/><path d="M551.326,159.004l-0.748,8.928l-2.768,0l0.025,-12.32l3.491,0l0,3.392Zm6.734,0l-0.748,8.928l-2.769,0l0.025,-12.32l3.492,0l0,3.392Z" style="fill:#fff;fill-rule:nonzero;"/></g></g><rect x="527.16" y="0" width="1.912" height="88.354" style="fill:#fff;"/></g></svg>