<?xml version="1.0" standalone="no"?>
<!DOCTYPE svg PUBLIC "-//W3C//DTD SVG 20010904//EN"
 "http://www.w3.org/TR/2001/REC-SVG-20010904/DTD/svg10.dtd">
<svg version="1.0" xmlns="http://www.w3.org/2000/svg"
 width="400.000000pt" height="400.000000pt" viewBox="0 0 400.000000 400.000000"
 preserveAspectRatio="xMidYMid meet">
<metadata>
Created by potrace 1.11, written by Peter Selinger 2001-2013
</metadata>
<g transform="translate(0.000000,400.000000) scale(0.100000,-0.100000)"
fill="#000000" stroke="none">
<path d="M0 2000 l0 -2000 2000 0 2000 0 0 2000 0 2000 -2000 0 -2000 0 0
-2000z m2264 1725 c81 -14 162 -88 191 -175 66 -199 -124 -395 -326 -337 -218
64 -259 368 -65 482 43 25 117 45 146 40 8 -2 32 -6 54 -10z m-161 -575 c100
-38 166 -135 167 -245 0 -149 -116 -265 -265 -265 -236 1 -352 284 -185 451
77 76 179 98 283 59z m-188 -601 c95 -49 145 -131 145 -240 0 -150 -112 -262
-264 -261 -75 0 -122 18 -180 72 -51 47 -86 125 -86 190 0 87 65 196 140 235
75 39 173 40 245 4z m201 -588 c90 -41 146 -125 152 -232 13 -208 -205 -343
-390 -242 -192 104 -179 381 22 472 59 27 159 28 216 2z m176 -587 c176 -60
233 -293 105 -432 -72 -78 -202 -104 -298 -60 -99 46 -149 116 -157 216 -6 89
9 140 60 197 76 86 184 116 290 79z m-167 -605 c56 -28 101 -76 127 -137 25
-55 21 -158 -7 -216 -42 -88 -133 -146 -227 -147 -79 -1 -130 16 -182 62 -58
52 -87 106 -93 179 -19 205 197 351 382 259z"/>
</g>
</svg>
